<?xml version="1.0" standalone="no"?>
<!DOCTYPE svg PUBLIC "-//W3C//DTD SVG 20010904//EN"
 "http://www.w3.org/TR/2001/REC-SVG-20010904/DTD/svg10.dtd">
<svg version="1.0" xmlns="http://www.w3.org/2000/svg"
 width="390" height="65" viewBox="0 0 1398.000000 238.000000"
 preserveAspectRatio="xMidYMid meet">

<g transform="translate(0.000000,238.000000) scale(0.100000,-0.100000)"
fill="#000000" stroke="none">
<path d="M6027 1853 c-4 -3 -7 -253 -7 -555 l0 -548 3688 2 3687 3 0 550 0
550 -3681 3 c-2024 1 -3684 -1 -3687 -5z m673 -216 c69 -19 114 -67 129 -138
12 -56 2 -124 -26 -165 -32 -50 -126 -86 -248 -96 l-30 -3 0 -115 0 -115 53
-3 c44 -3 53 -6 50 -20 -3 -15 -23 -17 -182 -20 -122 -2 -183 1 -192 9 -19 15
-8 29 22 29 l24 0 -2 308 -3 307 -22 3 c-23 3 -30 21 -15 36 12 14 382 -1 442
-17z m780 8 c17 -21 9 -26 -45 -32 l-45 -6 0 -298 c0 -164 4 -300 8 -303 5 -3
32 2 60 10 41 12 60 26 95 67 24 29 49 66 56 84 13 32 35 48 53 37 16 -10 -1
-217 -20 -232 -12 -9 -77 -12 -248 -12 -128 0 -239 3 -248 6 -24 9 -19 32 7
36 l22 3 3 301 2 302 -25 6 c-26 7 -34 31 -12 39 6 3 82 6 168 6 129 1 159 -2
169 -14z m866 -22 c8 -21 19 -47 24 -58 5 -11 20 -51 33 -90 14 -38 37 -104
52 -145 14 -41 31 -84 36 -95 5 -11 18 -48 29 -81 36 -113 58 -154 80 -154 24
0 27 -25 4 -34 -27 -10 -284 -7 -305 5 -23 12 -16 29 11 29 10 0 22 5 25 10 7
11 -32 147 -48 168 -6 8 -38 12 -93 12 l-83 0 -16 -57 c-9 -32 -21 -62 -25
-68 -4 -5 -10 -21 -12 -35 -2 -21 2 -26 25 -28 29 -4 34 -11 15 -30 -16 -16
-120 -16 -136 0 -18 18 -15 26 9 30 23 3 34 29 228 556 16 45 33 87 36 92 3 6
26 10 51 10 43 0 46 -2 60 -37z m827 25 c9 -7 55 -87 102 -178 106 -206 110
-212 121 -211 5 1 9 78 9 174 0 169 0 172 -23 182 -12 5 -21 17 -20 25 5 23
131 22 136 -1 2 -10 -5 -19 -18 -22 -20 -5 -20 -11 -20 -325 0 -282 -2 -321
-16 -326 -28 -11 -120 -6 -136 7 -15 12 -43 61 -138 242 -109 208 -162 305
-166 305 -2 0 -4 -117 -4 -260 0 -251 1 -260 19 -260 26 0 34 -15 17 -29 -8
-7 -38 -11 -73 -9 -46 2 -59 7 -61 21 -2 12 3 17 17 17 21 0 21 3 21 306 0
297 -1 306 -20 311 -22 6 -27 29 -7 36 28 12 243 7 260 -5z m1158 0 c46 -1 47
-2 53 -37 9 -53 7 -154 -3 -170 -12 -19 -26 -7 -58 47 -56 98 -95 132 -153
132 -50 0 -78 -24 -107 -89 -23 -52 -25 -67 -25 -211 0 -135 2 -162 21 -212
59 -154 178 -144 268 23 52 95 67 90 71 -22 4 -113 -4 -133 -54 -136 -226 -14
-279 -14 -318 -3 -68 19 -135 76 -170 145 -30 57 -31 65 -31 185 0 121 1 128
32 191 36 73 88 121 162 150 39 16 64 18 156 14 61 -3 131 -6 156 -7z m707
-10 c2 -11 -5 -18 -20 -20 -23 -3 -23 -5 -26 -141 l-3 -138 83 3 83 3 0 135 0
135 -27 3 c-31 4 -35 14 -14 31 9 8 60 11 157 9 125 -3 144 -5 147 -20 2 -12
-5 -17 -25 -20 l-28 -3 0 -305 0 -305 28 -3 c20 -3 27 -8 25 -20 -3 -15 -21
-17 -138 -20 -74 -1 -145 0 -157 3 -32 8 -29 33 5 37 l27 3 0 145 0 145 -82 3
-83 3 0 -151 0 -150 25 0 c28 0 34 -24 9 -34 -20 -8 -258 -8 -278 0 -24 9 -19
32 7 36 l22 3 0 305 0 305 -22 3 c-25 4 -31 27 -10 36 6 2 75 4 152 3 122 -2
140 -4 143 -19z m1179 10 c14 -18 25 -170 14 -187 -11 -17 -39 -8 -48 16 -28
76 -100 133 -167 133 -43 0 -46 -8 -46 -128 0 -115 6 -142 30 -142 28 0 78 47
92 86 8 22 18 34 28 32 13 -3 15 -26 15 -148 0 -130 -2 -145 -17 -148 -10 -2
-18 3 -18 10 0 8 -13 35 -29 60 -30 46 -77 69 -93 45 -11 -16 -10 -249 1 -265
7 -11 18 -11 62 2 85 25 124 57 164 136 19 38 34 52 47 44 4 -3 8 -50 8 -104
0 -76 -4 -102 -16 -114 -13 -14 -51 -16 -259 -16 -134 0 -250 3 -259 6 -24 9
-19 32 7 36 l22 3 3 301 2 302 -25 6 c-26 7 -34 31 -12 39 6 3 118 6 248 6
178 1 239 -2 246 -11z m949 4 c7 -4 15 -55 19 -128 6 -104 5 -122 -8 -127 -19
-7 -31 7 -47 58 -28 91 -89 165 -125 151 -13 -5 -15 -44 -13 -303 l3 -298 38
-3 c38 -3 51 -24 21 -36 -9 -3 -84 -6 -168 -6 -116 0 -157 3 -172 14 -21 16
-13 22 36 28 l25 3 3 303 c2 302 2 302 -19 302 -30 0 -73 -51 -98 -117 -31
-81 -36 -88 -57 -88 -18 0 -19 8 -16 115 2 63 9 121 14 128 8 9 77 12 282 12
149 0 276 -4 282 -8z"/>
<path d="M6526 1613 c-11 -12 -7 -321 5 -329 20 -12 62 30 75 76 26 87 12 206
-28 237 -19 15 -45 23 -52 16z"/>
<path d="M8193 1398 c-11 -17 -52 -140 -53 -155 0 -9 19 -13 60 -13 56 0 60 2
60 23 0 24 -22 92 -33 103 -4 4 -7 15 -7 25 0 23 -16 33 -27 17z"/>
<path d="M2403 1645 c-72 -23 -102 -47 -130 -103 -22 -45 -25 -62 -20 -115 6
-70 22 -107 60 -137 29 -23 117 -63 162 -74 47 -12 109 -43 129 -65 27 -30 26
-94 -2 -124 -35 -37 -93 -53 -134 -37 -62 25 -113 67 -162 134 -26 36 -52 66
-57 66 -9 0 -1 -190 8 -200 3 -3 21 -5 41 -6 21 0 74 -4 118 -9 45 -4 107 -4
139 0 50 6 63 12 105 53 57 55 75 109 66 190 -13 109 -51 145 -211 197 -87 28
-117 43 -142 70 -39 41 -40 49 -13 93 48 78 146 75 223 -7 24 -25 52 -61 62
-79 22 -37 40 -37 39 1 -3 153 -2 148 -28 141 -14 -3 -59 1 -101 10 -89 18
-96 19 -152 1z"/>
<path d="M4240 1645 c-74 -17 -100 -28 -138 -59 -70 -60 -102 -148 -102 -286
0 -155 39 -239 138 -298 44 -26 54 -27 172 -27 118 0 128 1 172 27 102 61 140
142 141 303 1 131 -17 198 -71 257 -44 48 -79 68 -157 84 -72 16 -84 16 -155
-1z m115 -19 c48 -20 65 -62 77 -183 13 -128 -2 -355 -26 -402 -17 -32 -61
-61 -93 -61 -30 0 -81 37 -100 72 -16 29 -18 60 -18 258 0 251 5 272 68 310
38 24 47 24 92 6z"/>
<path d="M483 1629 c16 -9 17 -35 17 -318 l0 -308 -22 -11 c-19 -9 -13 -11 37
-11 50 0 56 2 38 11 l-23 11 0 273 c0 298 2 308 51 216 13 -26 62 -119 109
-207 46 -88 101 -191 121 -230 l37 -70 71 -3 71 -3 0 315 c0 199 4 317 10 321
22 14 8 25 -32 25 -34 -1 -39 -3 -25 -11 15 -9 17 -30 17 -214 0 -113 -4 -205
-9 -205 -4 0 -22 26 -39 58 -66 126 -111 211 -152 290 l-42 82 -127 0 c-90 -1
-121 -3 -108 -11z"/>
<path d="M1370 1631 c0 -5 9 -11 20 -14 19 -5 20 -14 20 -311 0 -296 -1 -306
-19 -306 -11 0 -23 -4 -26 -10 -4 -7 83 -10 254 -10 l261 0 0 100 c0 103 -10
125 -30 66 -26 -80 -123 -146 -214 -146 l-36 0 0 150 0 150 29 0 c40 0 88 -43
102 -90 7 -22 16 -37 20 -34 12 7 12 264 0 264 -5 0 -14 -14 -21 -30 -17 -42
-65 -80 -101 -80 l-29 0 0 145 0 145 48 0 c68 0 133 -42 167 -110 38 -74 48
-65 40 33 -4 45 -9 85 -12 90 -6 10 -473 9 -473 -2z"/>
<path d="M3075 1529 c-4 -60 -5 -113 -2 -116 9 -8 27 7 27 23 0 8 14 44 31 80
33 69 75 107 112 102 l22 -3 0 -305 0 -305 -30 -3 c-16 -2 -34 -8 -40 -13 -5
-5 58 -9 164 -9 112 0 170 3 166 10 -3 6 -19 10 -36 10 l-29 0 0 310 0 310 28
0 c45 0 91 -57 124 -153 23 -69 38 -67 38 4 0 35 -3 88 -6 117 l-7 52 -277 0
-278 0 -7 -111z"/>
<path d="M5003 1622 c15 -16 17 -53 17 -316 l0 -297 -32 -14 c-30 -13 -21 -14
117 -14 112 0 143 3 123 11 l-28 10 0 154 c0 171 3 178 61 154 45 -19 59 -56
59 -158 0 -111 11 -146 55 -166 33 -16 120 -21 163 -10 23 7 62 69 62 99 0 25
-15 17 -27 -15 -12 -33 -46 -41 -57 -14 -3 9 -6 49 -6 90 0 88 -16 133 -59
163 -33 23 -33 41 -1 41 23 0 65 49 80 95 9 27 9 47 0 85 -25 103 -74 120
-352 120 -185 0 -191 -1 -175 -18z m299 -16 c39 -24 51 -134 22 -205 -17 -44
-70 -77 -104 -66 -19 6 -20 16 -20 145 0 101 3 140 13 143 16 7 66 -2 89 -17z"/>
</g>
</svg>
