<svg id="Calque_1" width="200" height="24"  data-name="Calque 1" xmlns="http://www.w3.org/2000/svg" viewBox="0 0 198 24"><path d="M19.76,2.5V21.41H15.48L8.65,11.47H8.54v9.94H3.4V2.5H7.76l6.72,9.9h.15V2.5Z"/><path d="M28,21.67a8.09,8.09,0,0,1-3.91-.88,6,6,0,0,1-2.52-2.51,8.13,8.13,0,0,1-.88-3.92,8,8,0,0,1,.88-3.85A6.39,6.39,0,0,1,24.05,8,7.63,7.63,0,0,1,27.87,7a8.15,8.15,0,0,1,2.91.5A6.11,6.11,0,0,1,33,9a6.3,6.3,0,0,1,1.42,2.29,8.54,8.54,0,0,1,.5,3V15.5H22.25V12.69h8a1.94,1.94,0,0,0-.31-1.07,2,2,0,0,0-.8-.73A2.4,2.4,0,0,0,28,10.62a2.46,2.46,0,0,0-1.14.27,2.12,2.12,0,0,0-.82.72,2,2,0,0,0-.33,1.08v3A2.45,2.45,0,0,0,26,16.94a2,2,0,0,0,.82.84,2.56,2.56,0,0,0,1.29.3,2.93,2.93,0,0,0,1-.14,2.09,2.09,0,0,0,.76-.43,1.75,1.75,0,0,0,.46-.68h4.65a5.33,5.33,0,0,1-1.13,2.56,5.84,5.84,0,0,1-2.37,1.68A9.07,9.07,0,0,1,28,21.67Z"/><path d="M48.86,11.84H44.17a1.29,1.29,0,0,0-.3-.74,1.84,1.84,0,0,0-.69-.49,2.52,2.52,0,0,0-.93-.17,2.48,2.48,0,0,0-1.13.24.74.74,0,0,0-.46.68.83.83,0,0,0,.27.59,2.39,2.39,0,0,0,1.1.41l2.88.52a6.69,6.69,0,0,1,3.24,1.33,3.19,3.19,0,0,1,1.08,2.51,4.19,4.19,0,0,1-.9,2.63,5.63,5.63,0,0,1-2.43,1.71,9.34,9.34,0,0,1-3.5.61,8.54,8.54,0,0,1-5.08-1.33,4.73,4.73,0,0,1-2-3.51h5.06a1.45,1.45,0,0,0,.67,1,2.64,2.64,0,0,0,1.43.36A2.47,2.47,0,0,0,43.59,18a.76.76,0,0,0,.47-.68.77.77,0,0,0-.4-.65,3.5,3.5,0,0,0-1.23-.38l-2.51-.45a6,6,0,0,1-3.25-1.44,3.66,3.66,0,0,1-1.07-2.73,4,4,0,0,1,.78-2.51,4.94,4.94,0,0,1,2.26-1.57A10.22,10.22,0,0,1,42.14,7,8.16,8.16,0,0,1,47,8.32,4.31,4.31,0,0,1,48.86,11.84Z"/><path d="M58.55,7.23v3.69H49.21V7.23ZM51,3.83h5.1v13a1,1,0,0,0,.1.49.69.69,0,0,0,.31.3,1.4,1.4,0,0,0,.55.09,2.84,2.84,0,0,0,.54-.05l.45-.09.74,3.58c-.23.07-.55.15-1,.25a8.48,8.48,0,0,1-1.5.19,7.35,7.35,0,0,1-3-.36A3.51,3.51,0,0,1,51.6,19.8,4.59,4.59,0,0,1,51,17.33Z"/><path d="M66.36,21.67a8,8,0,0,1-4-.92,6.18,6.18,0,0,1-2.52-2.57A8,8,0,0,1,59,14.36a8,8,0,0,1,.88-3.83A6.18,6.18,0,0,1,62.41,8a8.94,8.94,0,0,1,7.9,0,6.18,6.18,0,0,1,2.52,2.57,8,8,0,0,1,.88,3.83,8,8,0,0,1-.88,3.82,6.18,6.18,0,0,1-2.52,2.57A8,8,0,0,1,66.36,21.67Zm0-3.77a1.6,1.6,0,0,0,1.12-.43,2.87,2.87,0,0,0,.72-1.24,6,6,0,0,0,.26-1.91,6,6,0,0,0-.26-1.92,2.83,2.83,0,0,0-.72-1.23,1.6,1.6,0,0,0-1.12-.43,1.68,1.68,0,0,0-1.17.43,2.68,2.68,0,0,0-.75,1.23,6,6,0,0,0-.26,1.92,6,6,0,0,0,.26,1.91,2.72,2.72,0,0,0,.75,1.24A1.68,1.68,0,0,0,66.4,17.9Z"/><path d="M74.69,21.41V7.23h4.94V9.92h.15A4,4,0,0,1,81,7.74,3,3,0,0,1,83,7a4.89,4.89,0,0,1,.66,0,4.8,4.8,0,0,1,.63.15v4.34a4.73,4.73,0,0,0-.93-.19,9.09,9.09,0,0,0-1-.06,2.75,2.75,0,0,0-1.35.33,2.45,2.45,0,0,0-.94.95A2.88,2.88,0,0,0,79.78,14v7.39Z"/><path d="M88.86,21.41V2.5H97a7.85,7.85,0,0,1,3.69.83,5.94,5.94,0,0,1,2.45,2.34A6.78,6.78,0,0,1,104,9.18a6.65,6.65,0,0,1-.9,3.52A6,6,0,0,1,100.62,15a8.35,8.35,0,0,1-3.78.81H92v-4h3.85a3.47,3.47,0,0,0,1.54-.32,2.3,2.3,0,0,0,1-.91,2.72,2.72,0,0,0,.35-1.4,2.68,2.68,0,0,0-.35-1.39,2.3,2.3,0,0,0-1-.88,3.47,3.47,0,0,0-1.54-.31H94V21.41Z"/><path d="M110,2.5V21.41h-5.09V2.5Z"/><path d="M115.45,21.63a6,6,0,0,1-2.4-.45,3.62,3.62,0,0,1-1.63-1.36,4.24,4.24,0,0,1-.59-2.33,4.53,4.53,0,0,1,.4-2,3.48,3.48,0,0,1,1.11-1.35,5.07,5.07,0,0,1,1.65-.8A9.33,9.33,0,0,1,116,13a18.21,18.21,0,0,0,1.91-.23,2.41,2.41,0,0,0,1-.38.77.77,0,0,0,.33-.65v0a1,1,0,0,0-.43-.85,1.85,1.85,0,0,0-1.09-.3,2.09,2.09,0,0,0-1.19.32,1.35,1.35,0,0,0-.54,1h-4.7a4.9,4.9,0,0,1,.83-2.38,5.14,5.14,0,0,1,2.15-1.76A8.31,8.31,0,0,1,117.88,7a9.62,9.62,0,0,1,2.74.36,6.26,6.26,0,0,1,2.06,1A4.37,4.37,0,0,1,124,9.86a3.88,3.88,0,0,1,.45,1.84v9.71h-4.76v-2h-.11a4.43,4.43,0,0,1-1,1.28,4,4,0,0,1-1.38.71A6,6,0,0,1,115.45,21.63Zm1.66-3.21a2.52,2.52,0,0,0,1.09-.24,2.17,2.17,0,0,0,.84-.69,1.9,1.9,0,0,0,.32-1.1V15.21l-.43.15-.48.14-.53.12-.59.1a2.86,2.86,0,0,0-1,.3,1.47,1.47,0,0,0-.56.51,1.27,1.27,0,0,0-.18.67,1.06,1.06,0,0,0,.42.9A1.69,1.69,0,0,0,117.11,18.42Z"/><path d="M130.86,13.43v8h-5.09V7.23h4.84V9.92h.14a4,4,0,0,1,1.63-2.11,5.27,5.27,0,0,1,5.35-.08,4.72,4.72,0,0,1,1.73,1.89,5.91,5.91,0,0,1,.6,2.74v9.05H135v-8a2.33,2.33,0,0,0-.53-1.65,1.91,1.91,0,0,0-1.5-.6,2.12,2.12,0,0,0-1.09.27,1.82,1.82,0,0,0-.72.78A2.87,2.87,0,0,0,130.86,13.43Z"/><path d="M148.31,21.67a8,8,0,0,1-3.95-.92,6.18,6.18,0,0,1-2.52-2.57,8,8,0,0,1-.88-3.82,8,8,0,0,1,.88-3.83A6.18,6.18,0,0,1,144.36,8,8,8,0,0,1,148.31,7a8.15,8.15,0,0,1,3.62.75,5.61,5.61,0,0,1,2.36,2.13,6,6,0,0,1,.85,3.22h-4.72a2.91,2.91,0,0,0-.64-1.71,2,2,0,0,0-2.56-.2,2.46,2.46,0,0,0-.77,1.15,5.69,5.69,0,0,0-.28,1.94,5.62,5.62,0,0,0,.28,1.93,2.44,2.44,0,0,0,.77,1.16,1.89,1.89,0,0,0,1.17.38,1.92,1.92,0,0,0,1-.26,2,2,0,0,0,.71-.78,3.23,3.23,0,0,0,.33-1.25h4.72a6.45,6.45,0,0,1-.85,3.26,5.56,5.56,0,0,1-2.35,2.15A8,8,0,0,1,148.31,21.67Z"/><path d="M161.25,13.43v8h-5.09V2.5h4.91V9.92h.15a4.21,4.21,0,0,1,1.59-2.12A4.73,4.73,0,0,1,165.5,7a4.88,4.88,0,0,1,2.62.69,4.53,4.53,0,0,1,1.72,1.88,5.83,5.83,0,0,1,.61,2.75v9.05h-5.1v-8a2.32,2.32,0,0,0-.52-1.65,1.91,1.91,0,0,0-1.51-.6,2.11,2.11,0,0,0-1.08.27,1.82,1.82,0,0,0-.72.78A2.72,2.72,0,0,0,161.25,13.43Z"/><path d="M178.66,21.67a8.15,8.15,0,0,1-3.91-.88,6,6,0,0,1-2.52-2.51,8.13,8.13,0,0,1-.88-3.92,8,8,0,0,1,.89-3.85A6.33,6.33,0,0,1,174.74,8,7.62,7.62,0,0,1,178.55,7a8.15,8.15,0,0,1,2.91.5A6.15,6.15,0,0,1,183.69,9a6.43,6.43,0,0,1,1.42,2.29,8.77,8.77,0,0,1,.5,3V15.5H172.94V12.69h8a2,2,0,0,0-1.12-1.8,2.34,2.34,0,0,0-1.14-.27,2.39,2.39,0,0,0-1.13.27,2,2,0,0,0-1.16,1.8v3a2.56,2.56,0,0,0,.29,1.22,2,2,0,0,0,.82.84,2.62,2.62,0,0,0,1.29.3,3,3,0,0,0,1-.14,2.13,2.13,0,0,0,.75-.43,1.75,1.75,0,0,0,.46-.68h4.66a5.25,5.25,0,0,1-1.14,2.56,5.84,5.84,0,0,1-2.37,1.68A9.07,9.07,0,0,1,178.66,21.67Z"/><path d="M195,7.23v3.69H185.7V7.23Zm-7.53-3.4h5.09v13a1.19,1.19,0,0,0,.1.49.72.72,0,0,0,.32.3,1.38,1.38,0,0,0,.54.09,2.71,2.71,0,0,0,.54-.05l.46-.09.74,3.58c-.23.07-.55.15-1,.25a8.48,8.48,0,0,1-1.5.19,7.27,7.27,0,0,1-2.94-.36,3.47,3.47,0,0,1-1.79-1.45,4.5,4.5,0,0,1-.58-2.47Z"/></svg>